<svg xmlns="http://www.w3.org/2000/svg" xmlns:xlink="http://www.w3.org/1999/xlink" version="1.1" width="484.24858pt" height="259.10136pt" viewBox="0 0 484.24858 259.10136">
<defs>
<clipPath id="clip_0">
<path transform="matrix(1,0,0,-1,0,259.10136)" d="M30.648571 30.141366H477.04856V251.90137H30.648571Z"/>
</clipPath>
<clipPath id="clip_1">
<path transform="matrix(1,0,0,-1,0,259.10136)" d="M30.648571 30.141366H477.04856V251.90137H30.648571Z"/>
</clipPath>
<clipPath id="clip_2">
<path transform="matrix(1,0,0,-1,0,259.10136)" d="M30.648571 30.141366H477.04856V251.90137H30.648571Z"/>
</clipPath>
<clipPath id="clip_3">
<path transform="matrix(1,0,0,-1,0,259.10136)" d="M30.648571 30.141366H477.04856V251.90137H30.648571Z"/>
</clipPath>
</defs>
<path transform="matrix(1,0,0,-1,0,259.10136)" d="M0 0H484.24858V259.10136H0Z" fill="#ffffff"/>
<path transform="matrix(1,0,0,-1,0,259.10136)" d="M30.648573 30.141364H477.04859V251.90137H30.648573Z" fill="#ffffff"/>
<path transform="matrix(1,0,0,-1,0,259.10136)" d="M96.0304 30.141364V26.641364"/>
<path transform="matrix(1,0,0,-1,0,259.10136)" stroke-width=".8" stroke-linecap="butt" stroke-linejoin="round" fill="none" stroke="#000000" d="M96.0304 30.141364V26.641364"/>
<text xml:space="preserve" transform="matrix(1 0 -0 1 0 259.10136)" font-size="17.932753" font-family="CMR17"><tspan y="-10.688065" x="91.91826">2</tspan></text>
<path transform="matrix(1,0,0,-1,0,259.10136)" d="M186.2122 30.141364V26.641364"/>
<path transform="matrix(1,0,0,-1,0,259.10136)" stroke-width=".8" stroke-linecap="butt" stroke-linejoin="round" fill="none" stroke="#000000" d="M186.2122 30.141364V26.641364"/>
<text xml:space="preserve" transform="matrix(1 0 -0 1 0 259.10136)" font-size="17.932753" font-family="CMR17"><tspan y="-10.688065" x="182.10007">4</tspan></text>
<path transform="matrix(1,0,0,-1,0,259.10136)" d="M276.394 30.141364V26.641364"/>
<path transform="matrix(1,0,0,-1,0,259.10136)" stroke-width=".8" stroke-linecap="butt" stroke-linejoin="round" fill="none" stroke="#000000" d="M276.394 30.141364V26.641364"/>
<text xml:space="preserve" transform="matrix(1 0 -0 1 0 259.10136)" font-size="17.932753" font-family="CMR17"><tspan y="-10.688065" x="272.28187">6</tspan></text>
<path transform="matrix(1,0,0,-1,0,259.10136)" d="M366.5758 30.141364V26.641364"/>
<path transform="matrix(1,0,0,-1,0,259.10136)" stroke-width=".8" stroke-linecap="butt" stroke-linejoin="round" fill="none" stroke="#000000" d="M366.5758 30.141364V26.641364"/>
<text xml:space="preserve" transform="matrix(1 0 -0 1 0 259.10136)" font-size="17.932753" font-family="CMR17"><tspan y="-10.688065" x="362.46369">8</tspan></text>
<path transform="matrix(1,0,0,-1,0,259.10136)" d="M456.75764 30.141364V26.641364"/>
<path transform="matrix(1,0,0,-1,0,259.10136)" stroke-width=".8" stroke-linecap="butt" stroke-linejoin="round" fill="none" stroke="#000000" d="M456.75764 30.141364V26.641364"/>
<text xml:space="preserve" transform="matrix(1 0 -0 1 0 259.10136)" font-size="17.932753" font-family="CMR17"><tspan y="-10.688065" x="448.53334 456.74653">10</tspan></text>
<path transform="matrix(1,0,0,-1,0,259.10136)" d="M30.648573 40.221364H27.148573"/>
<path transform="matrix(1,0,0,-1,0,259.10136)" stroke-width=".8" stroke-linecap="butt" stroke-linejoin="round" fill="none" stroke="#000000" d="M30.648573 40.221364H27.148573"/>
<text xml:space="preserve" transform="matrix(1 0 -0 1 0 259.10136)" font-size="17.932753" font-family="CMR17"><tspan y="-33.994714" x="15.424286">2</tspan></text>
<path transform="matrix(1,0,0,-1,0,259.10136)" d="M30.648573 90.62136H27.148573"/>
<path transform="matrix(1,0,0,-1,0,259.10136)" stroke-width=".8" stroke-linecap="butt" stroke-linejoin="round" fill="none" stroke="#000000" d="M30.648573 90.62136H27.148573"/>
<text xml:space="preserve" transform="matrix(1 0 -0 1 0 259.10136)" font-size="17.932753" font-family="CMR17"><tspan y="-84.394718" x="15.424286">4</tspan></text>
<path transform="matrix(1,0,0,-1,0,259.10136)" d="M30.648573 141.02136H27.148573"/>
<path transform="matrix(1,0,0,-1,0,259.10136)" stroke-width=".8" stroke-linecap="butt" stroke-linejoin="round" fill="none" stroke="#000000" d="M30.648573 141.02136H27.148573"/>
<text xml:space="preserve" transform="matrix(1 0 -0 1 0 259.10136)" font-size="17.932753" font-family="CMR17"><tspan y="-134.79471" x="15.424286">6</tspan></text>
<path transform="matrix(1,0,0,-1,0,259.10136)" d="M30.648573 191.42137H27.148573"/>
<path transform="matrix(1,0,0,-1,0,259.10136)" stroke-width=".8" stroke-linecap="butt" stroke-linejoin="round" fill="none" stroke="#000000" d="M30.648573 191.42137H27.148573"/>
<text xml:space="preserve" transform="matrix(1 0 -0 1 0 259.10136)" font-size="17.932753" font-family="CMR17"><tspan y="-185.19472" x="15.424286">8</tspan></text>
<path transform="matrix(1,0,0,-1,0,259.10136)" d="M30.648573 241.82137H27.148573"/>
<path transform="matrix(1,0,0,-1,0,259.10136)" stroke-width=".8" stroke-linecap="butt" stroke-linejoin="round" fill="none" stroke="#000000" d="M30.648573 241.82137H27.148573"/>
<text xml:space="preserve" transform="matrix(1 0 -0 1 0 259.10136)" font-size="17.932753" font-family="CMR17"><tspan y="-235.59471" x="7.2 15.413201">10</tspan></text>
<g clip-path="url(#clip_0)">
<path transform="matrix(1,0,0,-1,0,259.10136)" stroke-width="1.5" stroke-linecap="square" stroke-linejoin="round" fill="none" stroke="#1f77b4" d="M50.939504 40.22137 57.381059 43.389936 63.822618 46.559518 70.264179 49.730127 76.70573 52.90173 83.147289 56.074357 89.588848 59.247999 96.030399 62.422655 102.47196 65.59832 108.91352 68.775 115.35509 71.952709 121.796649 75.13141 128.2382 78.311138 134.67975 81.49187 141.12133 84.673618 147.56287 87.856388 154.00443 91.04015 160.44599 94.22495 166.88755 97.41077 173.3291 100.59757 179.77066 103.78541 186.21224 106.97427 192.65378 110.16413 199.09534 113.355 205.5369 116.546878 211.97847 119.73979 218.42 122.9337 224.86156 126.12864 231.30313 129.3246 237.74469 132.52155 244.18624 135.71952 250.62779 138.9185 257.06935 142.11849 263.5109 145.3195 269.95243 148.52153 276.39399 151.72458 282.83558 154.92862 289.27714 158.1337 295.71867 161.33979 302.16023 164.54688 308.60179 167.75498 315.04335 170.96411 321.4849 174.17426 327.92649 177.3854 334.368 180.59758 340.8096 183.81075 347.25114 187.02494 353.69273 190.24015 360.13426 193.45638 366.5758 196.67362 373.01734 199.89186 379.45896 203.1111 385.90046 206.33138 392.34205 209.55269 398.78358 212.775 405.22514 215.99829 411.66673 219.22266 418.1083 222.448 424.54988 225.67435 430.9914 228.90174 437.43293 232.13013 443.8745 235.35951 450.31605 238.58994 456.75764 241.82137"/>
</g>
<g clip-path="url(#clip_1)">
<path transform="matrix(1,0,0,-1,0,259.10136)" stroke-width="1.5" stroke-linecap="square" stroke-linejoin="round" fill="none" stroke="#ffa500" d="M50.93948 40.221364 63.77304 43.822889 76.40028 47.411466 88.8214 50.987104 101.03634 54.54977 113.045047 58.099489 124.84757 61.636255 136.44396 65.16007 147.83409 68.67093 159.01808 72.16885 169.99587 75.65381 180.76743 79.12581 191.33284 82.58486 201.69203 86.03096 211.84503 89.4641 221.79186 92.88431 231.53244 96.29153 241.0669 99.68582 250.39511 103.06717 259.51719 106.435558 268.43305 109.79098 277.1427 113.13346 285.64616 116.46299 293.94346 119.77956 302.03456 123.08318 309.91944 126.37385 317.59815 129.65155 325.07066 132.91632 332.33699 136.16814 339.39714 139.40699 346.25108 142.63289 352.89884 145.84584 359.34037 149.04586 365.5757 152.23288 371.60487 155.40697 377.42787 158.56813 383.04466 161.71631 388.45527 164.85155 393.65968 167.97383 398.65797 171.08316 403.4499 174.17954 408.03578 177.26296 412.41545 180.33345 416.5889 183.39096 420.5561 186.43553 424.31724 189.46715 427.87205 192.48581 431.22077 195.49153 434.3632 198.48429 437.29954 201.46408 440.0296 204.43093 442.55354 207.38483 444.87126 210.32579 446.98283 213.25377 448.88816 216.16884 450.58735 219.07094 452.08024 221.96007 453.3671 224.83623 454.44764 227.69948 455.32197 230.54975 455.99018 233.38709 456.45219 236.21146 456.70805 239.02286 456.75767 241.82137"/>
</g>
<g clip-path="url(#clip_2)">
<path transform="matrix(1,0,0,-1,0,259.10136)" stroke-width="1.5" stroke-linecap="square" stroke-linejoin="round" fill="none" stroke="#ff0000" d="M50.93948 40.221364"/>
<path transform="matrix(1,0,0,-1,0,259.10136)" d="M50.93948 37.721364C51.60249 37.721364 52.23843 37.98478 52.70725 38.453599 53.176065 38.922418 53.43948 39.558359 53.43948 40.221364 53.43948 40.884374 53.176065 41.520315 52.70725 41.989133 52.23843 42.45795 51.60249 42.721364 50.93948 42.721364 50.276475 42.721364 49.64053 42.45795 49.171716 41.989133 48.702898 41.520315 48.43948 40.884374 48.43948 40.221364 48.43948 39.558359 48.702898 38.922418 49.171716 38.453599 49.64053 37.98478 50.276475 37.721364 50.93948 37.721364Z" fill="#ff0000"/>
<path transform="matrix(1,0,0,-1,0,259.10136)" stroke-width="1" stroke-linecap="butt" stroke-linejoin="round" fill="none" stroke="#ff0000" d="M50.93948 37.721364C51.60249 37.721364 52.23843 37.98478 52.70725 38.453599 53.176065 38.922418 53.43948 39.558359 53.43948 40.221364 53.43948 40.884374 53.176065 41.520315 52.70725 41.989133 52.23843 42.45795 51.60249 42.721364 50.93948 42.721364 50.276475 42.721364 49.64053 42.45795 49.171716 41.989133 48.702898 41.520315 48.43948 40.884374 48.43948 40.221364 48.43948 39.558359 48.702898 38.922418 49.171716 38.453599 49.64053 37.98478 50.276475 37.721364 50.93948 37.721364Z"/>
</g>
<g clip-path="url(#clip_3)">
<path transform="matrix(1,0,0,-1,0,259.10136)" stroke-width="1.5" stroke-linecap="square" stroke-linejoin="round" fill="none" stroke="#ff0000" d="M456.75767 241.82137"/>
<path transform="matrix(1,0,0,-1,0,259.10136)" d="M456.75767 239.32137C457.4207 239.32137 458.0566 239.58478 458.52543 240.0536 458.99424 240.52242 459.25767 241.15836 459.25767 241.82137 459.25767 242.48438 458.99424 243.12032 458.52543 243.58913 458.0566 244.05796 457.4207 244.32137 456.75767 244.32137 456.09468 244.32137 455.4587 244.05796 454.9899 243.58913 454.5211 243.12032 454.25767 242.48438 454.25767 241.82137 454.25767 241.15836 454.5211 240.52242 454.9899 240.0536 455.4587 239.58478 456.09468 239.32137 456.75767 239.32137Z" fill="#ff0000"/>
<path transform="matrix(1,0,0,-1,0,259.10136)" stroke-width="1" stroke-linecap="butt" stroke-linejoin="round" fill="none" stroke="#ff0000" d="M456.75767 239.32137C457.4207 239.32137 458.0566 239.58478 458.52543 240.0536 458.99424 240.52242 459.25767 241.15836 459.25767 241.82137 459.25767 242.48438 458.99424 243.12032 458.52543 243.58913 458.0566 244.05796 457.4207 244.32137 456.75767 244.32137 456.09468 244.32137 455.4587 244.05796 454.9899 243.58913 454.5211 243.12032 454.25767 242.48438 454.25767 241.82137 454.25767 241.15836 454.5211 240.52242 454.9899 240.0536 455.4587 239.58478 456.09468 239.32137 456.75767 239.32137Z"/>
</g>
<path transform="matrix(1,0,0,-1,0,259.10136)" stroke-width=".8" stroke-linecap="square" stroke-miterlimit="10" stroke-linejoin="miter" fill="none" stroke="#000000" d="M30.648573 30.141364V251.90137"/>
<path transform="matrix(1,0,0,-1,0,259.10136)" stroke-width=".8" stroke-linecap="square" stroke-miterlimit="10" stroke-linejoin="miter" fill="none" stroke="#000000" d="M477.04859 30.141364V251.90137"/>
<path transform="matrix(1,0,0,-1,0,259.10136)" stroke-width=".8" stroke-linecap="square" stroke-miterlimit="10" stroke-linejoin="miter" fill="none" stroke="#000000" d="M30.648573 30.141364H477.04859"/>
<path transform="matrix(1,0,0,-1,0,259.10136)" stroke-width=".8" stroke-linecap="square" stroke-miterlimit="10" stroke-linejoin="miter" fill="none" stroke="#000000" d="M30.648573 251.90137H477.04859"/>
<text xml:space="preserve" transform="matrix(1 0 -0 1 0 259.10136)" font-size="17.932753" font-family="CMBX12" font-weight="bold"><tspan y="-51.221364" x="46.93948">P</tspan></text>
<text xml:space="preserve" transform="matrix(1 0 -0 1 0 259.10136)" font-size="12.552872" font-family="CMR12"><tspan y="-48.531469" x="60.72114">0</tspan></text>
<text xml:space="preserve" transform="matrix(1 0 -0 1 0 259.10136)" font-size="17.932753" font-family="CMBX12" font-weight="bold"><tspan y="-221.82137" x="450.75767">P</tspan></text>
<text xml:space="preserve" transform="matrix(1 0 -0 1 0 259.10136)" font-size="12.552872" font-family="CMR12"><tspan y="-219.13147" x="464.5393">1</tspan></text>
<g>
<path transform="matrix(1,0,0,-1,0,259.10136)" d="M43.248575 187.32524H305.39674C307.79673 187.32524 308.9967 188.52524 308.9967 190.92523V239.30136C308.9967 241.70137 307.79673 242.90137 305.39674 242.90137H43.248575C40.84857 242.90137 39.64857 241.70137 39.64857 239.30136V190.92523C39.64857 188.52524 40.84857 187.32524 43.248575 187.32524Z" fill="#ffffff" fill-opacity=".8"/>
<path transform="matrix(1,0,0,-1,0,259.10136)" stroke-width="1" stroke-linecap="butt" stroke-miterlimit="10" stroke-linejoin="miter" fill="none" stroke="#d5d6d5" stroke-opacity=".8" d="M43.248575 187.32524H305.39674C307.79673 187.32524 308.9967 188.52524 308.9967 190.92523V239.30136C308.9967 241.70137 307.79673 242.90137 305.39674 242.90137H43.248575C40.84857 242.90137 39.64857 241.70137 39.64857 239.30136V190.92523C39.64857 188.52524 40.84857 187.32524 43.248575 187.32524Z"/>
</g>
<path transform="matrix(1,0,0,-1,0,259.10136)" stroke-width="1.5" stroke-linecap="square" stroke-linejoin="round" fill="none" stroke="#1f77b4" d="M46.84857 229.40137H64.84857 82.84857"/>
<text xml:space="preserve" transform="matrix(1 0 -0 1 0 259.10136)" font-size="17.932753" font-family="CMSS17"><tspan y="-223.10137" x="97.24857 104.72653 113.85648 122.75331 130.23126 161.37773 169.80612 181.98155 188.06076 193.79924 201.86898 209.59799 217.07595 226.67826 232.75746 236.73853 250.09842 263.19764 271.62605 280.05445 284.7349 293.1633">epoch0:traveltime42.51</tspan></text>
<path transform="matrix(1,0,0,-1,0,259.10136)" stroke-width="1.5" stroke-linecap="square" stroke-linejoin="round" fill="none" stroke="#ffa500" d="M46.84857 204.3133H64.84857 82.84857"/>
<text xml:space="preserve" transform="matrix(1 0 -0 1 0 259.10136)" font-size="17.932753" font-family="CMSS17"><tspan y="-198.0133" x="97.24857 104.72653 113.85648 122.75331 130.23126 144.51403 152.94242 161.3708 169.7992 181.97463 188.05384 193.79232 201.86205 209.59107 217.06902 226.67133 232.75054 236.7316 250.09149 263.1907 271.6191 280.04753 284.72798 293.15638">epoch100:traveltime36.70</tspan></text>
</svg>
